<svg width="29" height="29" viewBox="0 0 29 29" fill="none" xmlns="http://www.w3.org/2000/svg">
<path d="M14.5002 1.16016C7.1446 1.16016 1.16016 7.14402 1.16016 14.5002C1.16016 21.8563 7.1446 27.8402 14.5002 27.8402C21.8563 27.8402 27.8402 21.8563 27.8402 14.5002C27.8402 7.14402 21.8563 1.16016 14.5002 1.16016ZM18.5602 9.28016H16.652C15.5279 9.28016 15.0802 9.54406 15.0802 10.3276V12.1802H18.5602L17.9802 15.0802H15.0802V22.6202H11.6002V15.0802H9.86016V12.1802H11.6002V10.5712C11.6002 8.12074 12.578 6.38016 15.4171 6.38016C16.9379 6.38016 18.5602 6.96016 18.5602 6.96016V9.28016Z" fill="white"/>
</svg>
